<?xml version="1.0" encoding="UTF-8" standalone="no"?>
<svg
   width="1078.1329"
   zoomAndPan="magnify"
   viewBox="0 0 808.5997 787.26397"
   height="1049.6853"
   preserveAspectRatio="xMidYMid"
   version="1.0"
   id="svg485"
   sodipodi:docname="2-2_modified.svg"
   inkscape:version="1.2.1 (9c6d41e, 2022-07-14)"
   xmlns:inkscape="http://www.inkscape.org/namespaces/inkscape"
   xmlns:sodipodi="http://sodipodi.sourceforge.net/DTD/sodipodi-0.dtd"
   xmlns="http://www.w3.org/2000/svg"
   xmlns:svg="http://www.w3.org/2000/svg">
  <sodipodi:namedview
     id="namedview487"
     pagecolor="#ffffff"
     bordercolor="#999999"
     borderopacity="1"
     inkscape:showpageshadow="0"
     inkscape:pageopacity="0"
     inkscape:pagecheckerboard="0"
     inkscape:deskcolor="#d1d1d1"
     showgrid="false"
     inkscape:zoom="0.48553438"
     inkscape:cx="411.91728"
     inkscape:cy="376.90431"
     inkscape:window-width="1853"
     inkscape:window-height="930"
     inkscape:window-x="507"
     inkscape:window-y="395"
     inkscape:window-maximized="0"
     inkscape:current-layer="svg485" />
  <defs
     id="defs415">
    <g
       id="g386" />
    <clipPath
       id="e5034eb977">
      <path
         d="M 11,26 H 794 V 788.46094 H 11 Z m 0,0"
         clip-rule="nonzero"
         id="path388" />
    </clipPath>
    <clipPath
       id="41cad0474c">
      <path
         d="M 228.88281,270.75391 H 334.29297 V 376.16406 H 228.88281 Z m 0,0"
         clip-rule="nonzero"
         id="path391" />
    </clipPath>
    <clipPath
       id="42e7e87eb6">
      <path
         d="m 281.58984,270.75391 c -29.10937,0 -52.70703,23.59765 -52.70703,52.70703 0,29.10547 23.59766,52.70312 52.70703,52.70312 29.10547,0 52.70313,-23.59765 52.70313,-52.70312 0,-29.10938 -23.59766,-52.70703 -52.70313,-52.70703 z m 0,0"
         clip-rule="nonzero"
         id="path394" />
    </clipPath>
    <clipPath
       id="8f2a53bc29">
      <path
         d="M 228.88281,424.59375 H 334.29297 V 530.00391 H 228.88281 Z m 0,0"
         clip-rule="nonzero"
         id="path397" />
    </clipPath>
    <clipPath
       id="ac328fa476">
      <path
         d="m 281.58984,424.59375 c -29.10937,0 -52.70703,23.59766 -52.70703,52.70312 0,29.10938 23.59766,52.70704 52.70703,52.70704 29.10547,0 52.70313,-23.59766 52.70313,-52.70704 0,-29.10546 -23.59766,-52.70312 -52.70313,-52.70312 z m 0,0"
         clip-rule="nonzero"
         id="path400" />
    </clipPath>
    <clipPath
       id="4e89790e2a">
      <path
         d="M 238.375,578.75391 H 343.78516 V 684.16406 H 238.375 Z m 0,0"
         clip-rule="nonzero"
         id="path403" />
    </clipPath>
    <clipPath
       id="1936246313">
      <path
         d="m 291.07812,578.75391 c -29.10937,0 -52.70312,23.59765 -52.70312,52.70312 0,29.10938 23.59375,52.70703 52.70312,52.70703 29.10938,0 52.70704,-23.59765 52.70704,-52.70703 0,-29.10547 -23.59766,-52.70312 -52.70704,-52.70312 z m 0,0"
         clip-rule="nonzero"
         id="path406" />
    </clipPath>
    <clipPath
       id="aad227417f">
      <path
         d="M 228.88281,116.70703 H 334.29297 V 222.11719 H 228.88281 Z m 0,0"
         clip-rule="nonzero"
         id="path409" />
    </clipPath>
    <clipPath
       id="7b35598ff9">
      <path
         d="m 281.58984,116.70703 c -29.10937,0 -52.70703,23.59766 -52.70703,52.70313 0,29.10937 23.59766,52.70703 52.70703,52.70703 29.10547,0 52.70313,-23.59766 52.70313,-52.70703 0,-29.10547 -23.59766,-52.70313 -52.70313,-52.70313 z m 0,0"
         clip-rule="nonzero"
         id="path412" />
    </clipPath>
  </defs>
  <g
     clip-path="url(#e5034eb977)"
     id="g419"
     transform="matrix(1.0329347,0,0,1.0329347,-11.425366,-27.164696)">
    <path
       fill="#000000"
       d="M 219.66016,27.964844 C 173.48828,33.238281 132.00391,48.824219 100.01172,72.847656 59.230469,103.43359 31.222656,145.85547 18.449219,196.12891 c -7.851563,31.17187 -7.382813,17.34375 -7.382813,213.28125 0,140.85937 0.351563,180 1.523438,189.25781 5.742187,43.35937 21.5625,82.5 46.054687,114.25781 10.429688,13.59375 29.296875,32.69531 40.195313,40.66406 19.101566,14.17969 43.007816,25.89844 65.976566,32.46094 l 13.59375,3.86719 -16.28907,0.82031 c -47.10937,2.34375 -92.460934,8.20313 -99.726559,13.125 -3.867187,2.46094 -3.515625,7.03125 0.703125,9.25781 17.34375,8.90625 95.976564,17.34375 194.062504,20.625 49.57031,1.64063 234.72656,1.64063 278.32031,-0.11718 95.27344,-3.63282 178.94531,-11.25 200.85937,-18.39844 11.01563,-3.51563 12.42188,-8.90625 3.28125,-12.77344 -9.60937,-3.98437 -48.63281,-8.90625 -88.125,-11.01562 -13.24218,-0.70313 -24.14062,-1.52344 -24.375,-1.75782 -0.23437,-0.23437 2.69532,-1.05468 6.44532,-1.75781 19.57031,-4.10156 51.91406,-18.86719 68.78906,-31.52344 48.16406,-36.09375 76.99219,-84.49218 89.41406,-150.11718 1.99219,-10.42969 2.10938,-22.85157 2.10938,-193.35938 0,-171.09375 -0.11719,-183.04687 -2.10938,-195 -10.66406,-63.04687 -45.23437,-118.242186 -94.57031,-150.820311 -30.9375,-20.507813 -70.42969,-34.21875 -112.5,-39.023438 -13.59375,-1.640625 -39.14063,-1.875 -183.98438,-1.757812 -127.5,0.117187 -171.32812,0.46875 -181.05468,1.640625 z m 78.51562,80.859376 c 18.04688,3.75 35.39063,16.28906 45.82031,32.92969 6.32813,10.07812 3.16407,9.375 31.52344,6.91406 11.01563,-0.9375 39.96094,-3.39844 64.45313,-5.27344 24.49218,-1.99219 59.88281,-4.80469 78.51562,-6.44531 58.94531,-5.15625 91.17188,-7.61719 98.67188,-7.61719 14.0625,0 25.54687,7.14844 32.22656,19.92188 4.10156,7.96875 3.86719,21.67968 -0.58594,30.70312 -3.75,7.73438 -9.49219,13.125 -17.8125,16.875 -5.03906,2.22656 -9.72656,2.92969 -33.98437,4.57031 -15.46875,0.9375 -36.32813,2.57813 -46.28907,3.51563 -9.96093,0.9375 -35.27343,3.04687 -56.25,4.6875 -20.97656,1.64062 -43.59375,3.51562 -50.39062,4.10156 -23.55469,2.34375 -68.67188,5.85938 -88.71094,7.03125 l -20.27344,1.17188 -7.26562,5.625 c -13.94531,10.54687 -26.71875,14.76562 -44.29688,14.64843 -25.07812,-0.11718 -44.41406,-10.3125 -57.89062,-30.58593 -9.25781,-13.94532 -12.53906,-28.59375 -10.19531,-45.35157 3.51562,-25.07812 22.96875,-47.92968 46.99218,-55.54687 13.00782,-3.98438 22.85157,-4.57031 35.74219,-1.875 z m -97.26562,41.25 c -5.03907,13.24219 -5.50782,38.55469 -0.70313,51.32812 1.40625,3.86719 2.92969,7.96875 3.28125,9.14063 0.58594,1.875 -0.35156,1.99219 -14.41406,1.64062 -17.34375,-0.46875 -21.5625,-1.875 -29.0625,-10.19531 -6.09375,-6.67969 -7.85156,-11.71875 -7.85156,-21.21094 0,-9.72656 2.92968,-17.10937 9.25781,-23.78906 7.03125,-7.38281 11.60156,-8.90625 27.07031,-8.90625 12.1875,0 13.24219,0.11719 12.42188,1.99219 z m -1.75782,87.77344 c 0,0.35156 -2.57812,3.98437 -5.74218,7.96875 -11.48438,14.53125 -13.24219,20.39062 -7.73438,25.89843 2.57813,2.69532 3.63281,2.92969 14.0625,2.92969 h 11.25 l -2.57812,3.63281 c -1.40625,2.10938 -4.33594,7.73438 -6.44532,12.65625 l -3.98437,8.90625 -12.53906,-0.11718 c -10.54688,0 -13.47657,-0.46875 -17.34375,-2.46094 -10.19532,-5.39063 -15.70313,-15 -15.82032,-27.30469 0,-15.70312 9.84375,-28.82812 23.67188,-31.52344 5.97656,-1.17187 23.20312,-1.64062 23.20312,-0.58593 z m 100.78125,18.63281 c 4.57032,0.9375 11.13282,3.04687 14.41407,4.6875 12.07031,5.74219 26.48437,20.27344 32.22656,32.46094 2.46094,5.27343 3.75,6.79687 5.74219,6.79687 1.40625,0 19.92187,-1.52344 41.01562,-3.51562 21.09375,-1.875 52.14844,-4.57032 68.90625,-5.85938 16.75781,-1.28906 45.82031,-3.63281 64.45313,-5.27344 99.49218,-8.55468 97.5,-8.4375 106.28906,-3.98437 6.67969,3.39844 11.83594,8.4375 15.70312,15.35156 3.04688,5.50781 3.39844,7.26563 3.39844,16.17188 0,8.08593 -0.58594,11.01562 -2.92969,15.82031 -3.63281,7.38281 -10.42968,14.17969 -17.22656,17.22656 -5.50781,2.46094 -4.45312,2.34375 -141.5625,13.82813 -30.9375,2.57812 -67.61719,5.74218 -81.44531,7.03125 -13.82813,1.28906 -35.97656,3.16406 -49.21875,4.10156 l -23.90625,1.875 -8.08594,5.97656 c -26.13281,19.45313 -62.57812,19.6875 -87.1875,0.70313 -6.79687,-5.27344 -15.35156,-15.9375 -19.92187,-24.72657 -7.5,-14.88281 -8.08594,-41.36718 -1.28907,-58.82812 2.10938,-5.50781 8.67188,-15.35156 14.17969,-21.32813 15,-16.40625 41.48438,-23.78906 66.44531,-18.51562 z m -102.77343,79.92187 c 0.9375,15.82032 5.39062,28.24219 15,41.01563 l 4.6875,6.21094 h -22.03125 c -25.07813,0 -28.35938,-0.9375 -35.39063,-8.78907 -5.27344,-6.09375 -7.38281,-11.48437 -7.5,-19.45312 -0.11719,-11.83594 8.4375,-24.96094 18.63281,-28.59375 2.57813,-0.9375 9.25782,-1.64063 15.23438,-1.75781 h 10.66406 z m 102.65625,72.42188 c 19.45312,4.57031 37.38281,18.75 46.64062,36.5625 l 3.28125,6.32812 9.375,-0.70312 c 5.15625,-0.35156 26.01563,-2.22656 46.28906,-4.10156 20.27344,-1.875 47.69532,-4.21875 60.9375,-5.27344 13.24219,-1.05469 46.99219,-3.98438 75,-6.5625 28.00782,-2.57813 58.35938,-4.92188 67.5,-5.39063 15.9375,-0.70312 16.75782,-0.58593 22.85157,2.22657 7.26562,3.39843 14.17968,9.96093 17.8125,16.75781 1.99218,3.75 2.57812,6.67969 2.57812,14.64844 0,8.55468 -0.46875,10.78125 -3.16406,15.82031 -3.51563,6.91406 -11.83594,15 -17.8125,17.46094 -6.32813,2.57812 -5.85938,2.57812 -116.13281,11.83593 -19.33594,1.64063 -48.63282,4.21875 -65.03907,5.85938 -16.40625,1.64062 -40.19531,3.75 -52.73437,4.6875 -12.53906,1.05469 -31.64063,2.57812 -42.53906,3.51562 l -19.57032,1.52344 -5.97656,5.39063 c -13.94531,12.53906 -35.74219,18.86718 -56.36719,16.17187 -25.54687,-3.16406 -45.58593,-19.92187 -54.49218,-45.58594 -2.8125,-7.96875 -3.16407,-10.89843 -3.16407,-23.20312 0,-22.38281 5.27344,-35.74219 19.80469,-50.50781 8.90625,-9.02344 18.28125,-14.41407 30.58594,-17.34375 9.14062,-2.22657 25.07812,-2.22657 34.33594,-0.11719 z m -115.3125,3.75 c -0.58594,1.17187 -1.17188,3.75 -1.40625,5.74219 -0.9375,5.97656 2.57812,7.5 16.28906,7.5 6.32812,0 11.48437,0.23437 11.48437,0.46875 0,0.23437 -2.10937,4.10156 -4.6875,8.4375 -6.32812,10.78125 -8.32031,17.34375 -9.25781,30.11718 l -0.70312,10.78125 -5.27344,0.35157 c -10.66406,0.82031 -19.57031,-0.9375 -25.42969,-4.80469 -16.99219,-11.48438 -18.16406,-38.78906 -2.34375,-53.20313 5.85938,-5.15625 10.66406,-7.26562 17.10938,-7.38281 4.33593,0 4.92187,0.23438 4.21875,1.99219 z m 18.98437,99.84375 5.74219,11.60156 -3.28125,0.70313 c -1.875,0.35156 -5.625,0.35156 -8.55469,-0.11719 -11.95312,-1.52344 -18.39844,6.32812 -12.1875,15 1.28906,1.875 6.32813,8.08594 11.13281,13.71094 l 8.78907,10.19531 -14.41407,0.35156 c -17.10937,0.46875 -21.67968,-0.70312 -28.47656,-6.91406 -9.14062,-8.4375 -12.77344,-22.14844 -8.90625,-33.63281 5.39063,-15.9375 15.23438,-22.26563 34.80469,-22.38282 l 9.49219,-0.11718 z m 100.54688,49.6875 c 7.5,2.10937 16.28906,5.97656 20.27343,9.02344 8.32032,6.32812 18.04688,17.34375 21.5625,24.25781 l 3.86719,7.5 5.85938,-0.70313 c 3.28125,-0.35156 17.69531,-1.64062 32.22656,-2.8125 14.53125,-1.28906 40.89844,-3.63281 58.59375,-5.27343 73.35937,-6.91407 151.40625,-13.71094 163.59375,-14.41407 15.70312,-0.82031 22.14844,0.9375 30.35156,8.08594 8.20313,7.26563 11.60156,14.76563 11.71875,25.54688 0,10.66406 -3.04687,18.04687 -10.3125,25.54687 -9.375,9.72656 -9.72656,9.84375 -60.23437,14.29688 -49.92188,4.45312 -78.51563,7.14843 -120.46875,11.13281 -23.20313,2.22656 -48.98438,4.57031 -57.42188,5.27344 -8.32031,0.70312 -22.03125,1.99218 -30.46875,2.92968 -8.32031,0.82032 -19.6875,1.875 -25.07812,2.34375 l -9.84375,0.70313 -7.03125,6.44531 c -18.75,17.34375 -46.40625,22.96875 -71.71875,14.53125 -12.30469,-4.10156 -25.54688,-14.88281 -33.98438,-27.65625 -8.78906,-13.125 -12.89062,-34.57031 -9.96094,-52.03125 3.75,-23.20312 22.61719,-46.40625 43.35938,-53.32031 12.53906,-4.10156 32.46094,-4.80469 45.11719,-1.40625 z m -99.02344,27.77344 c 0,0.70312 -1.28906,3.75 -2.8125,6.79687 -4.57031,9.02344 -5.74219,17.10938 -5.15625,33.75 0.35156,8.32031 1.17187,16.52344 1.99219,18.28125 l 1.28906,3.28125 h -13.59375 c -11.13281,0 -14.29688,-0.35156 -18.04688,-2.34375 -6.21093,-3.16406 -10.19531,-7.61719 -13.82812,-15.23437 -8.67188,-18.63282 2.8125,-41.13282 22.85156,-44.53125 8.55469,-1.40625 27.30469,-1.40625 27.30469,0 z m 0,0"
       fill-opacity="1"
       fill-rule="nonzero"
       id="path417" />
  </g>
  <g
     fill="#000000"
     fill-opacity="1"
     id="g453"
     transform="translate(-0.27613467,-14.751761)">
    <g
       transform="translate(250.87045,357.67881)"
       id="g451">
      <g
         id="g449">
        <path
           d="m 5.75,0 v -10.796875 l 25.234375,-23.375 c 3.226563,-3.09375 5.6875,-5.78125 7.375,-8.0625 1.6875,-2.289063 2.53125,-4.84375 2.53125,-7.65625 0,-3.113281 -1.039063,-5.578125 -3.109375,-7.390625 C 35.71875,-59.09375 33.128906,-60 30.015625,-60 c -3.230469,0 -5.835937,0.976562 -7.8125,2.921875 -1.96875,1.949219 -2.945313,4.621094 -2.921875,8.015625 H 5.0625 c 0,-4.632812 1.046875,-8.660156 3.140625,-12.078125 2.101563,-3.414063 5.039063,-6.054687 8.8125,-7.921875 3.769531,-1.875 8.140625,-2.8125 13.109375,-2.8125 5.070312,0 9.492188,0.898438 13.265625,2.6875 3.78125,1.78125 6.71875,4.25 8.8125,7.40625 2.101563,3.148438 3.15625,6.777344 3.15625,10.890625 0,2.679687 -0.53125,5.320313 -1.59375,7.921875 -1.0625,2.605469 -2.929687,5.496094 -5.59375,8.671875 -2.65625,3.179687 -6.421875,6.980469 -11.296875,11.40625 l -10.359375,10.15625 V -12.25 h 29.78125 V 0 Z m 0,0"
           id="path447" />
      </g>
    </g>
  </g>
  <g
     fill="#000000"
     fill-opacity="1"
     id="g467"
     transform="translate(-2.0892487,-18.789147)">
    <g
       transform="translate(258.47299,209.1442)"
       id="g465">
      <g
         id="g463">
        <path
           d="M 35.109375,-70.90625 V 0 H 20.15625 V -52.5625 H 19.5 c -0.773438,1.179688 -2.390625,2.351562 -4.859375,3.515625 -2.46875,1.167969 -5.664063,1.75 -9.578125,1.75 v -11.90625 c 3.039062,0 5.703125,-0.671875 7.984375,-2.015625 2.289063,-1.351562 4.082031,-2.945312 5.375,-4.78125 1.289063,-1.84375 1.957031,-3.476562 2,-4.90625 z m 0,0"
           id="path461" />
      </g>
    </g>
  </g>
  <g
     fill="#000000"
     fill-opacity="1"
     id="g475"
     transform="translate(0.07552071,-11.252741)">
    <g
       transform="translate(249.4349,511.51707)"
       id="g473">
      <g
         id="g471">
        <path
           d="m 31.953125,0.96875 c -5.1875,0 -9.792969,-0.8867188 -13.8125,-2.65625 -4.011719,-1.78125 -7.171875,-4.25 -9.484375,-7.40625 -2.3125,-3.164062 -3.511719,-6.816406 -3.59375,-10.953125 h 15.09375 c 0.132812,2.585937 1.316406,4.671875 3.546875,6.265625 2.226563,1.59375 4.992187,2.390625 8.296875,2.390625 3.4375,0 6.242188,-0.878906 8.421875,-2.640625 2.175781,-1.769531 3.253906,-4.0625 3.234375,-6.875 0.01953,-2.863281 -1.140625,-5.203125 -3.484375,-7.015625 -2.335937,-1.8125 -5.511719,-2.71875 -9.53125,-2.71875 H 24.03125 V -41.65625 h 6.609375 c 3.414063,0 6.195313,-0.859375 8.34375,-2.578125 2.144531,-1.71875 3.207031,-3.972656 3.1875,-6.765625 0.01953,-2.675781 -0.902344,-4.84375 -2.765625,-6.5 -1.855469,-1.664062 -4.292969,-2.5 -7.3125,-2.5 -3.074219,0 -5.695312,0.808594 -7.859375,2.421875 -2.167969,1.617187 -3.296875,3.773437 -3.390625,6.46875 h -14.375 c 0.070312,-4.082031 1.238281,-7.6875 3.5,-10.8125 2.257812,-3.125 5.3125,-5.5625 9.15625,-7.3125 3.84375,-1.757813 8.191406,-2.640625 13.046875,-2.640625 4.882813,0 9.160156,0.890625 12.828125,2.671875 3.675781,1.773437 6.535156,4.164063 8.578125,7.171875 2.039063,3.011719 3.050781,6.386719 3.03125,10.125 0.01953,3.96875 -1.210937,7.28125 -3.6875,9.9375 -2.480469,2.65625 -5.703125,4.34375 -9.671875,5.0625 v 0.546875 c 5.207031,0.648437 9.179688,2.449219 11.921875,5.40625 2.738281,2.960937 4.09375,6.640625 4.0625,11.046875 0.03125,4.042969 -1.125,7.632812 -3.46875,10.765625 -2.34375,3.136719 -5.574219,5.605469 -9.6875,7.40625 -4.105469,1.8007812 -8.8125,2.703125 -14.125,2.703125 z m 0,0"
           id="path469" />
      </g>
    </g>
  </g>
  <g
     fill="#000000"
     fill-opacity="1"
     id="g483"
     transform="translate(-4.399291,-4.8705923)">
    <g
       transform="translate(248.53402,665.67667)"
       id="g481">
      <g
         id="g479">
        <path
           d="M 4.671875,-12.46875 V -24.265625 L 34.28125,-70.90625 h 18.765625 v 46.421875 H 61.84375 V -12.46875 H 53.046875 V 0 h -14.34375 v -12.46875 z m 34.3125,-12.015625 V -54.5625 H 38.4375 l -18.671875,29.53125 v 0.546875 z m 0,0"
           id="path477" />
      </g>
    </g>
  </g>
</svg>
